PathFileType	4	(X/Y/Z)	/Users/itak/Documents/Research/Walk-IL/dataset/trc/00278_00010.trc
DataRate	CameraRate	NumFrames	NumMarkers	Units	OrigDataRate	OrigDataStartFrame	OrigNumFrames
100.000000	100.000000	4	54	mm	100.000000	207	552
Frame#	Time	RPSI			LPSI			L3			STRN			T10			C7			CLAV			RBAK			LBAK			LSHO			LUPA			LAEL			LAOL			LWTS			LWPS			LFRA			LIFD			LHPS			LHTS			RSHO			RUPA			RAEL			RAOL			RWTS			RWPS			RFRA			RIFD			RHTS			RHPS			RBHD			LFHD			RFHD			LBHD			LHIP			RASI			LASI			LKNE			LTHI			LANK			LTIP			LTOE			LMT1			LMT5			LHEE			RKNE			RTHI			RANK			RTIP			RTOE			RMT1			RMT5			RHEE			RHIP			*53			
		X1	Y1	Z1	X2	Y2	Z2	X3	Y3	Z3	X4	Y4	Z4	X5	Y5	Z5	X6	Y6	Z6	X7	Y7	Z7	X8	Y8	Z8	X9	Y9	Z9	X10	Y10	Z10	X11	Y11	Z11	X12	Y12	Z12	X13	Y13	Z13	X14	Y14	Z14	X15	Y15	Z15	X16	Y16	Z16	X17	Y17	Z17	X18	Y18	Z18	X19	Y19	Z19	X20	Y20	Z20	X21	Y21	Z21	X22	Y22	Z22	X23	Y23	Z23	X24	Y24	Z24	X25	Y25	Z25	X26	Y26	Z26	X27	Y27	Z27	X28	Y28	Z28	X29	Y29	Z29	X30	Y30	Z30	X31	Y31	Z31	X32	Y32	Z32	X33	Y33	Z33	X34	Y34	Z34	X35	Y35	Z35	X36	Y36	Z36	X37	Y37	Z37	X38	Y38	Z38	X39	Y39	Z39	X40	Y40	Z40	X41	Y41	Z41	X42	Y42	Z42	X43	Y43	Z43	X44	Y44	Z44	X45	Y45	Z45	X46	Y46	Z46	X47	Y47	Z47	X48	Y48	Z48	X49	Y49	Z49	X50	Y50	Z50	X51	Y51	Z51	X52	Y52	Z52	X53	Y53	Z53	X54	Y54	Z54	

208	2.07	1553.32763671875	981.7608032226562	-194.0186462402344	1410.218505859375	947.9547119140625	-100.8838043212891	1472.946655273438	1038.553344726562	-161.6455230712891	1305.501098632812	1207.761962890625	-359.12548828125	1478.951171875	1158.8154296875	-152.1662139892578	1425.201538085938	1399.561645507812	-185.6148834228516	1337.021484375	1309.852172851562	-308.7512512207031	1525.451782226562	1269.422729492188	-188.3527069091797	1357.05810546875	1363.00439453125	-106.1236572265625	1259.624877929688	1364.541381835938	-142.8780364990234	1228.079711914062	1255.028198242188	-60.58256912231445	1228.143432617188	1053.45166015625	-30.1511058807373	1314.596069335938	1046.273315429688	-22.39085960388184	1224.798095703125	821.722900390625	-97.51569366455078	1202.738403320312	815.815185546875	-28.28445816040039	1218.404052734375	948.8568115234375	-22.86734580993652	1238.749145507812	636.0675659179688	-77.01336669921875	1208.398193359375	727.8446044921875	-23.45694351196289	1205.648315429688	722.3928833007812	-83.29634094238281	1505.005493164062	1378.9140625	-336.5679016113281	1564.820434570312	1327.513916015625	-372.8502502441406	1639.311767578125	1080.486083984375	-454.0202941894531	1584.112915039062	1046.953735351562	-385.3387451171875	1545.93603515625	899.9779052734375	-596.336669921875	1629.882080078125	891.1717529296875	-590.6134033203125	1641.79541015625	1024.095458984375	-499.9950256347656	1539.717407226562	752.04443359375	-669.4955444335938	1544.369873046875	809.0169067382812	-670.1251220703125	1617.487060546875	809.1758422851562	-653.9029541015625	1466.43603515625	1550.058959960938	-278.3001098632812	1258.372436523438	1591.816162109375	-288.8829040527344	1316.194458007812	1588.944946289062	-361.8098449707031	1375.229248046875	1544.0302734375	-164.9712066650391	1294.794921875	895.1787719726562	-114.8771743774414	1468.131103515625	937.5164184570312	-401.4761352539062	1263.7255859375	915.6395874023438	-256.0869140625	1205.050903320312	497.2584533691406	-382.0735778808594	1218.655639648438	615.8240356445312	-296.1495971679688	1331.215942382812	63.44771194458008	-321.9711303710938	1258.295043945312	270.2158508300781	-349.4230346679688	1276.725341796875	46.44272232055664	-523.6408081054688	1341.58837890625	51.23057174682617	-479.3821716308594	1258.73681640625	44.80009841918945	-417.6745910644531	1404.7705078125	66.74441528320312	-313.2911071777344	1590.1787109375	465.765625	-329.3247985839844	1579.55126953125	732.7793579101562	-377.2769165039062	1653.893798828125	40.95601654052734	-218.6451873779297	1591.23974609375	345.9351196289062	-312.2938842773438	1492.805297851562	25.65012359619141	-332.4597778320312	1499.432250976562	24.77589797973633	-263.5397338867188	1609.163452148438	18.75798225402832	-303.6398315429688	1654.270874023438	31.43378257751465	-143.4787292480469	1589.104370117188	942.0490112304688	-335.3206176757812	nan	nan	nan	
209	2.08	1548.845825195312	981.2647094726562	-202.736083984375	1406.694458007812	947.412841796875	-108.1191558837891	1469.353637695312	1038.023681640625	-169.4631195068359	1299.794677734375	1206.736572265625	-365.3810729980469	1475.838745117188	1157.80810546875	-160.2647705078125	1421.194213867188	1398.490234375	-193.0989685058594	1331.688842773438	1308.783447265625	-315.2301330566406	1521.703491210938	1268.581420898438	-197.1628112792969	1354.15625	1361.671508789062	-112.8684158325195	1256.269653320312	1363.123901367188	-148.0585784912109	1226.475830078125	1253.88818359375	-65.04329681396484	1228.119506835938	1052.519653320312	-33.62551116943359	1314.730590820312	1045.75732421875	-27.54076957702637	1223.885864257812	820.4513549804688	-99.41471862792969	1203.335815429688	814.9625244140625	-29.62405204772949	1218.724365234375	947.9876098632812	-25.50156784057617	1238.656372070312	634.9854125976562	-77.78343200683594	1209.1884765625	727.0997924804688	-24.19549179077148	1205.329711914062	720.9379272460938	-84.06674957275391	1499.2373046875	1378.162841796875	-344.962890625	1558.558471679688	1326.7509765625	-382.0216979980469	1631.467529296875	1080.069091796875	-465.7790832519531	1577.160888671875	1046.00048828125	-396.3128662109375	1533.797729492188	904.7587280273438	-611.10009765625	1617.56689453125	895.327392578125	-606.4030151367188	1632.95849609375	1024.651000976562	-512.801513671875	1524.447265625	759.69287109375	-688.4138793945312	1529.913452148438	815.3916015625	-687.2421875	1603.721557617188	815.2149658203125	-672.2312622070312	1460.83349609375	1549.287719726562	-286.6022644042969	1252.495239257812	1590.349853515625	-294.6925659179688	1309.463623046875	1587.544921875	-368.3254699707031	1370.935302734375	1543.081787109375	-172.1129760742188	1291.040283203125	894.3671875	-121.9420852661133	1462.520141601562	936.481689453125	-409.7044372558594	1258.923217773438	914.7491455078125	-262.9461975097656	1200.14013671875	496.2446899414062	-386.8885192871094	1214.041381835938	614.571533203125	-300.9373474121094	1309.805053710938	55.32505798339844	-352.3144836425781	1245.599487304688	266.3527221679688	-365.82177734375	1250.843627929688	52.05659866333008	-553.2886962890625	1315.714965820312	51.44397354125977	-511.6888427734375	1234.908203125	44.86371231079102	-447.2513732910156	1383.759887695312	55.10237121582031	-345.4200439453125	1588.16796875	465.921630859375	-331.7221069335938	1574.557250976562	731.6220092773438	-384.9974365234375	1653.134033203125	42.96876525878906	-219.0948791503906	1590.530517578125	346.6314086914062	-314.0395202636719	1492.830932617188	25.83694648742676	-332.4494934082031	1499.448486328125	24.87197113037109	-263.4584045410156	1609.08984375	18.8355655670166	-304.3658752441406	1654.1806640625	32.32460403442383	-143.6701202392578	1584.473876953125	941.2601928710938	-344.542724609375	nan	nan	nan	
210	2.09	1544.157836914062	980.6349487304688	-211.4361572265625	1402.823608398438	946.5310668945312	-115.6605453491211	1465.533447265625	1037.189575195312	-177.3211975097656	1294.050170898438	1205.608520507812	-371.67333984375	1472.3955078125	1156.557861328125	-168.4088897705078	1416.999877929688	1397.262817382812	-200.5016937255859	1326.27490234375	1307.599853515625	-321.6932373046875	1517.791870117188	1267.603271484375	-205.8675079345703	1351.029907226562	1360.171630859375	-119.6144714355469	1252.684936523438	1361.548461914062	-153.4027404785156	1224.591918945312	1252.546875	-69.69482421875	1227.932495117188	1051.388427734375	-37.36980819702148	1314.64697265625	1045.075927734375	-32.92816925048828	1223.217163085938	818.9450073242188	-101.5257186889648	1204.034301757812	813.8700561523438	-31.31175422668457	1218.996459960938	946.86767578125	-28.48345756530762	1238.67333984375	633.675537109375	-78.84612274169922	1210.09521484375	726.1535034179688	-25.23134422302246	1205.124267578125	719.2847290039062	-85.13036346435547	1493.379150390625	1377.26416015625	-353.2048645019531	1552.195190429688	1325.834594726562	-391.043212890625	1623.474365234375	1079.474487304688	-477.2456359863281	1569.904296875	1044.951416015625	-407.2162780761719	1521.42919921875	909.4528198242188	-625.2808227539062	1604.986083984375	899.5700073242188	-621.6377563476562	1623.882080078125	1025.083374023438	-525.2928466796875	1508.923217773438	767.4653930664062	-706.810302734375	1515.195922851562	821.8681640625	-703.8272094726562	1589.700561523438	821.3785400390625	-690.037841796875	1455.126586914062	1548.34130859375	-294.7248840332031	1246.572021484375	1588.779907226562	-300.3921508789062	1302.70166015625	1586.052001953125	-374.6974487304688	1366.528564453125	1541.960693359375	-179.1262969970703	1287.043579101562	893.3209228515625	-129.1500854492188	1456.780883789062	935.3140869140625	-417.8941345214844	1253.885864257812	913.6956176757812	-269.910400390625	1195.649291992188	494.5604248046875	-391.3589477539062	1209.62744140625	612.7215576171875	-305.4760131835938	1287.727783203125	48.58607482910156	-381.9262084960938	1232.776977539062	262.7818603515625	-381.7234497070312	1225.0400390625	58.74968338012695	-581.2830810546875	1289.491455078125	52.92328643798828	-542.7211303710938	1210.72314453125	46.19084930419922	-475.5485229492188	1361.894287109375	44.88760375976562	-377.0689697265625	1585.905883789062	465.9004211425781	-334.7683715820312	1569.43505859375	730.3313598632812	-392.679443359375	1652.379516601562	44.99292755126953	-219.5397033691406	1589.556518554688	347.1497497558594	-316.4195251464844	1492.852294921875	25.99963188171387	-332.4427490234375	1499.464599609375	24.98639678955078	-263.3848876953125	1609.023681640625	18.92654991149902	-305.0894165039062	1654.1640625	33.30408096313477	-143.8502502441406	1579.54248046875	940.38623046875	-353.6937255859375	nan	nan	nan	
211	2.1	1539.278442382812	979.8561401367188	-220.1147308349609	1398.557250976562	945.287841796875	-123.6280059814453	1461.438720703125	1036.045654296875	-185.2721557617188	1288.252075195312	1204.373046875	-377.9992370605469	1468.5947265625	1155.075439453125	-176.6286468505859	1412.62548828125	1395.879028320312	-207.8211517333984	1320.77294921875	1306.302124023438	-328.1429443359375	1513.702392578125	1266.470825195312	-214.4673919677734	1347.678344726562	1358.500732421875	-126.3566436767578	1248.871826171875	1359.82763671875	-158.9160766601562	1222.408813476562	1251.00390625	-74.53298187255859	1227.54541015625	1050.05224609375	-41.38787841796875	1314.312622070312	1044.200439453125	-38.59487152099609	1222.730102539062	817.2066040039062	-103.8575820922852	1204.829223632812	812.5328979492188	-33.33231735229492	1219.204467773438	945.5027465820312	-31.7904224395752	1238.857421875	632.1250610351562	-80.20343017578125	1211.157470703125	724.9909057617188	-26.57328224182129	1205.0712890625	717.4188842773438	-86.495361328125	1487.4296875	1376.215698242188	-361.3007202148438	1545.729614257812	1324.76904296875	-399.92626953125	1615.348754882812	1078.713134765625	-488.4415588378906	1562.369140625	1043.802734375	-418.0496826171875	1508.859619140625	914.0244140625	-638.8671875	1592.181396484375	903.8260498046875	-636.29931640625	1614.585327148438	1025.386596679688	-537.4783935546875	1493.184326171875	775.2928466796875	-724.6672973632812	1500.26123046875	828.3834228515625	-719.86083984375	1575.464477539062	827.5975952148438	-707.3048095703125	1449.320556640625	1547.215087890625	-302.6636047363281	1240.601440429688	1587.10693359375	-305.9794311523438	1295.909790039062	1584.466430664062	-380.9225463867188	1362.024169921875	1540.66357421875	-186.0116577148438	1282.801025390625	892.0454711914062	-136.4983062744141	1450.921142578125	933.9913330078125	-426.0368347167969	1248.620483398438	912.4618530273438	-276.9934692382812	1191.502685546875	492.2570495605469	-395.58203125	1205.357421875	610.3035888671875	-309.8181457519531	1265.425537109375	43.29393768310547	-410.4757080078125	1219.994140625	259.56005859375	-397.0207214355469	1199.339965820312	66.42989349365234	-607.3222045898438	1263.227905273438	55.63300323486328	-572.1104125976562	1186.49365234375	48.74070358276367	-502.1916809082031	1339.602172851562	36.31097412109375	-407.8155517578125	1583.283081054688	465.6103820800781	-338.6588745117188	1564.192138671875	728.8849487304688	-400.3145751953125	1651.629516601562	46.99568176269531	-219.9799957275391	1588.209228515625	347.3991088867188	-319.6295776367188	1492.870361328125	26.12246131896973	-332.440185546875	1499.47802734375	25.09107780456543	-263.3289184570312	1608.96337890625	19.00136566162109	-305.8104248046875	1654.23095703125	34.33594512939453	-144.0520782470703	1574.317993164062	939.4067993164062	-362.7376098632812	nan	nan	nan	
